# Blender v2.79 (sub 0) OBJ File: 'stairs.blend'
# www.blender.org
o Cube
v 1.000000 -1.000000 -1.000000
v 1.000000 -1.000000 1.000000
v -1.000000 -1.000000 1.000000
v -1.000000 -1.000000 -1.000000
v 1.000000 1.000000 -0.999999
v 0.999999 1.000000 1.000001
v -0.005250 1.000000 -1.000000
v 0.001167 1.000000 1.000000
v -0.000432 0.001124 -1.003165
v -0.995473 -0.001804 -0.995970
v 0.000586 0.000738 1.002757
v -0.999932 -0.000249 0.999973
vt 0.666016 0.500689
vt 0.666770 0.750066
vt 0.832523 0.750798
vt 0.831720 1.000344
vt 0.999173 1.000344
vt 0.999173 0.500689
vt 0.333158 1.000000
vt 0.000000 0.500344
vt 0.333158 0.500344
vt 0.333158 1.000000
vt 0.166677 0.750357
vt 0.333158 0.500344
vt 0.166773 0.500344
vt 0.333158 0.500344
vt 0.333912 0.499338
vt 0.499834 0.000000
vt 0.499665 0.501135
vt 0.999473 0.500344
vt 0.665856 0.250701
vt 0.666315 0.500344
vt 0.333158 0.500344
vt 0.665644 0.749722
vt 0.666315 0.500344
vt 0.333158 0.000689
vt 0.000000 0.500345
vt 0.000000 1.000000
vt 0.000000 0.500344
vt 0.166773 1.000000
vt 0.000011 0.750110
vt 0.165704 1.000000
vt 0.333169 0.000696
vt 1.000000 0.250798
vt 0.333162 0.750110
vt 0.000000 0.000689
vn -0.0072 0.0041 -1.0000
vn 0.0000 0.0032 -1.0000
vn 0.0000 -0.0032 -1.0000
vn 0.0032 0.0000 -1.0000
vn 1.0000 -0.0000 0.0000
vn 0.0028 -0.0000 1.0000
vn 0.0000 1.0000 0.0000
vn -0.0029 1.0000 0.0002
vn -1.0000 0.0006 0.0032
vn -1.0000 0.0045 -0.0000
vn 0.0000 -1.0000 0.0000
vn -0.0000 -0.0028 1.0000
vn -0.0000 0.0028 1.0000
vn -0.0028 0.0000 1.0000
vn -0.0010 1.0000 -0.0008
vn -1.0000 -0.0048 0.0005
vn -1.0000 0.0001 -0.0022
s off
f 4/1/1 10/2/1 9/3/1
f 7/4/2 5/5/2 9/3/2
f 1/6/3 4/1/3 9/3/3
f 9/3/4 5/5/4 1/6/4
f 5/7/5 2/8/5 1/9/5
f 6/10/6 11/11/6 2/12/6
f 5/7/7 8/13/7 6/14/7
f 10/15/8 11/16/8 9/17/8
f 7/18/9 11/19/9 8/20/9
f 3/21/10 10/22/10 4/23/10
f 2/24/11 4/25/11 1/9/11
f 5/7/5 6/26/5 2/8/5
f 3/27/12 2/12/12 11/11/12
f 6/10/13 8/28/13 11/11/13
f 11/11/14 12/29/14 3/27/14
f 5/7/7 7/30/7 8/13/7
f 10/15/15 12/31/15 11/16/15
f 7/18/16 9/32/16 11/19/16
f 3/21/17 12/33/17 10/22/17
f 2/24/11 3/34/11 4/25/11
